<mxfile host="app.diagrams.net" modified="2023-07-21T18:34:33.839Z" agent="Mozilla/5.0 (Windows NT 10.0; Win64; x64; rv:109.0) Gecko/20100101 Firefox/115.0" etag="MOoLvyrhHbfOl6QU9c4p" version="21.6.5" type="github">
  <diagram name="Page-1" id="q439sj2pC0Bngm4db8-S">
    <mxGraphModel dx="1235" dy="679" grid="1" gridSize="10" guides="1" tooltips="1" connect="1" arrows="1" fold="1" page="1" pageScale="1" pageWidth="827" pageHeight="1169" math="0" shadow="0">
      <root>
        <mxCell id="0" />
        <mxCell id="1" parent="0" />
        <mxCell id="n8gKzf1Zq6XbeUrCmBqp-24" value="" style="rounded=0;whiteSpace=wrap;html=1;fillColor=none;strokeColor=#000000;gradientColor=none;strokeWidth=3;" vertex="1" parent="1">
          <mxGeometry x="105.8" y="800" width="924.2" height="320" as="geometry" />
        </mxCell>
        <mxCell id="n8gKzf1Zq6XbeUrCmBqp-1" value="" style="image;aspect=fixed;perimeter=ellipsePerimeter;html=1;align=center;shadow=0;dashed=0;spacingTop=3;image=img/lib/active_directory/windows_server.svg;" vertex="1" parent="1">
          <mxGeometry x="850" y="305" width="133" height="162.2" as="geometry" />
        </mxCell>
        <mxCell id="n8gKzf1Zq6XbeUrCmBqp-2" value="" style="image;aspect=fixed;perimeter=ellipsePerimeter;html=1;align=center;shadow=0;dashed=0;spacingTop=3;image=img/lib/active_directory/windows_server_2.svg;points=[[0,0,0,0,0],[0,0.25,0,0,0],[0,0.5,0,0,0],[0,0.75,0,0,0],[0,1,0,0,0],[0.25,0,0,0,0],[0.25,1,0,0,0],[0.5,0,0,0,0],[0.5,1,0,0,0],[0.62,0.48,0,0,0],[0.75,0,0,0,0],[0.75,1,0,0,0],[1,0,0,0,0],[1,0.25,0,0,0],[1,0.75,0,0,0],[1,1,0,0,0]];" vertex="1" parent="1">
          <mxGeometry x="100" y="340" width="130" height="162.5" as="geometry" />
        </mxCell>
        <mxCell id="n8gKzf1Zq6XbeUrCmBqp-3" value="" style="image;html=1;image=img/lib/clip_art/networking/Cloud_Server_128x128.png" vertex="1" parent="1">
          <mxGeometry x="130" y="20" width="190" height="100" as="geometry" />
        </mxCell>
        <mxCell id="n8gKzf1Zq6XbeUrCmBqp-42" style="edgeStyle=orthogonalEdgeStyle;rounded=0;orthogonalLoop=1;jettySize=auto;html=1;exitX=0;exitY=0.5;exitDx=0;exitDy=0;exitPerimeter=0;entryX=0.314;entryY=-0.035;entryDx=0;entryDy=0;entryPerimeter=0;shape=link;" edge="1" parent="1" source="n8gKzf1Zq6XbeUrCmBqp-4" target="n8gKzf1Zq6XbeUrCmBqp-37">
          <mxGeometry relative="1" as="geometry" />
        </mxCell>
        <mxCell id="n8gKzf1Zq6XbeUrCmBqp-4" value="" style="outlineConnect=0;dashed=0;verticalLabelPosition=bottom;verticalAlign=top;align=center;html=1;shape=mxgraph.aws3.router;fillColor=#F58536;gradientColor=none;" vertex="1" parent="1">
          <mxGeometry x="478.9799999999999" y="30" width="128.93" height="80" as="geometry" />
        </mxCell>
        <mxCell id="n8gKzf1Zq6XbeUrCmBqp-8" value="" style="image;html=1;image=img/lib/clip_art/networking/Wireless_Router_N_128x128.png;points=[[0,0,0,0,0],[0,0.25,0,0,0],[0,0.5,0,0,0],[0,0.75,0,0,0],[0.2,0.71,0,0,0],[0.25,0,0,0,0],[0.31,0.87,0,0,0],[0.5,0,0,0,0],[0.5,0.95,0,0,0],[0.72,0.87,0,0,0],[0.75,0,0,0,0],[0.81,0.83,0,0,0],[1,0,0,0,0],[1,0.25,0,0,0],[1,0.5,0,0,0],[1,0.75,0,0,0]];" vertex="1" parent="1">
          <mxGeometry x="440" y="520" width="250" height="110" as="geometry" />
        </mxCell>
        <mxCell id="n8gKzf1Zq6XbeUrCmBqp-9" value="" style="image;aspect=fixed;html=1;points=[];align=center;fontSize=12;image=img/lib/azure2/preview/Azure_Sphere.svg;" vertex="1" parent="1">
          <mxGeometry x="502.40000000000003" y="200" width="87.37" height="90" as="geometry" />
        </mxCell>
        <mxCell id="n8gKzf1Zq6XbeUrCmBqp-14" value="" style="shape=link;html=1;rounded=0;exitX=0.417;exitY=0.533;exitDx=0;exitDy=0;exitPerimeter=0;entryX=0.5;entryY=0.7;entryDx=0;entryDy=0;entryPerimeter=0;" edge="1" parent="1" source="n8gKzf1Zq6XbeUrCmBqp-8" target="n8gKzf1Zq6XbeUrCmBqp-5">
          <mxGeometry width="100" relative="1" as="geometry">
            <mxPoint x="450" y="800" as="sourcePoint" />
            <mxPoint x="550" y="800" as="targetPoint" />
          </mxGeometry>
        </mxCell>
        <mxCell id="n8gKzf1Zq6XbeUrCmBqp-15" value="" style="shape=link;html=1;rounded=0;exitX=0.62;exitY=0.48;exitDx=0;exitDy=0;exitPerimeter=0;" edge="1" parent="1" source="n8gKzf1Zq6XbeUrCmBqp-2" target="n8gKzf1Zq6XbeUrCmBqp-5">
          <mxGeometry width="100" relative="1" as="geometry">
            <mxPoint x="270" y="500" as="sourcePoint" />
            <mxPoint x="450" y="610.59" as="targetPoint" />
          </mxGeometry>
        </mxCell>
        <mxCell id="n8gKzf1Zq6XbeUrCmBqp-16" value="" style="shape=link;html=1;rounded=0;movable=1;resizable=1;rotatable=1;deletable=1;editable=1;locked=0;connectable=1;entryX=0;entryY=0.75;entryDx=0;entryDy=0;exitX=1;exitY=0.5;exitDx=0;exitDy=0;" edge="1" parent="1" source="n8gKzf1Zq6XbeUrCmBqp-5" target="n8gKzf1Zq6XbeUrCmBqp-1">
          <mxGeometry width="100" relative="1" as="geometry">
            <mxPoint x="660" y="625.0854794520548" as="sourcePoint" />
            <mxPoint x="840" y="610" as="targetPoint" />
          </mxGeometry>
        </mxCell>
        <mxCell id="n8gKzf1Zq6XbeUrCmBqp-30" style="edgeStyle=orthogonalEdgeStyle;rounded=0;orthogonalLoop=1;jettySize=auto;html=1;exitX=0.69;exitY=0.47;exitDx=0;exitDy=0;exitPerimeter=0;entryX=0.2;entryY=0.71;entryDx=0;entryDy=0;entryPerimeter=0;shape=link;" edge="1" parent="1" source="n8gKzf1Zq6XbeUrCmBqp-20" target="n8gKzf1Zq6XbeUrCmBqp-8">
          <mxGeometry relative="1" as="geometry" />
        </mxCell>
        <mxCell id="n8gKzf1Zq6XbeUrCmBqp-20" value="" style="image;html=1;image=img/lib/clip_art/computers/Laptop_128x128.png;points=[[0,0,0,0,0],[0,0.25,0,0,0],[0,0.5,0,0,0],[0,0.75,0,0,0],[0,1,0,0,0],[0.25,0,0,0,0],[0.25,1,0,0,0],[0.5,0,0,0,0],[0.5,1,0,0,0],[0.69,0.47,0,0,0],[0.75,0,0,0,0],[0.75,1,0,0,0],[1,0.25,0,0,0],[1,0.5,0,0,0],[1,0.75,0,0,0],[1,1,0,0,0]];" vertex="1" parent="1">
          <mxGeometry x="120" y="890" width="150" height="140" as="geometry" />
        </mxCell>
        <mxCell id="n8gKzf1Zq6XbeUrCmBqp-31" style="edgeStyle=orthogonalEdgeStyle;rounded=0;orthogonalLoop=1;jettySize=auto;html=1;exitX=1;exitY=0.5;exitDx=0;exitDy=0;entryX=0.31;entryY=0.87;entryDx=0;entryDy=0;entryPerimeter=0;shape=link;" edge="1" parent="1" source="n8gKzf1Zq6XbeUrCmBqp-21" target="n8gKzf1Zq6XbeUrCmBqp-8">
          <mxGeometry relative="1" as="geometry" />
        </mxCell>
        <mxCell id="n8gKzf1Zq6XbeUrCmBqp-21" value="" style="image;html=1;image=img/lib/clip_art/computers/Laptop_128x128.png" vertex="1" parent="1">
          <mxGeometry x="290" y="860" width="140" height="110" as="geometry" />
        </mxCell>
        <mxCell id="n8gKzf1Zq6XbeUrCmBqp-33" style="edgeStyle=orthogonalEdgeStyle;rounded=0;orthogonalLoop=1;jettySize=auto;html=1;exitX=0.5;exitY=1;exitDx=0;exitDy=0;entryX=0.72;entryY=0.87;entryDx=0;entryDy=0;entryPerimeter=0;shape=link;" edge="1" parent="1" source="n8gKzf1Zq6XbeUrCmBqp-22" target="n8gKzf1Zq6XbeUrCmBqp-8">
          <mxGeometry relative="1" as="geometry" />
        </mxCell>
        <mxCell id="n8gKzf1Zq6XbeUrCmBqp-22" value="" style="image;html=1;image=img/lib/clip_art/computers/Laptop_128x128.png" vertex="1" parent="1">
          <mxGeometry x="770" y="860" width="130" height="120" as="geometry" />
        </mxCell>
        <mxCell id="n8gKzf1Zq6XbeUrCmBqp-32" style="edgeStyle=orthogonalEdgeStyle;rounded=0;orthogonalLoop=1;jettySize=auto;html=1;exitX=0;exitY=0.5;exitDx=0;exitDy=0;shape=link;" edge="1" parent="1" source="n8gKzf1Zq6XbeUrCmBqp-23" target="n8gKzf1Zq6XbeUrCmBqp-8">
          <mxGeometry relative="1" as="geometry" />
        </mxCell>
        <mxCell id="n8gKzf1Zq6XbeUrCmBqp-23" value="" style="image;html=1;image=img/lib/clip_art/computers/Printer_128x128.png" vertex="1" parent="1">
          <mxGeometry x="550" y="990" width="130" height="110" as="geometry" />
        </mxCell>
        <mxCell id="n8gKzf1Zq6XbeUrCmBqp-34" value="" style="shape=link;html=1;rounded=0;" edge="1" parent="1" source="n8gKzf1Zq6XbeUrCmBqp-9" target="n8gKzf1Zq6XbeUrCmBqp-5">
          <mxGeometry width="100" relative="1" as="geometry">
            <mxPoint x="543" y="280" as="sourcePoint" />
            <mxPoint x="541.9860526315788" y="490" as="targetPoint" />
          </mxGeometry>
        </mxCell>
        <mxCell id="n8gKzf1Zq6XbeUrCmBqp-5" value="" style="image;html=1;image=img/lib/clip_art/networking/Switch_128x128.png;points=[[0,0,0,0,0],[0,0.25,0,0,0],[0,0.5,0,0,0],[0,0.75,0,0,0],[0,1,0,0,0],[0.25,0,0,0,0],[0.25,1,0,0,0],[0.5,0,0,0,0],[0.5,0.7,0,0,0],[0.75,0,0,0,0],[0.75,1,0,0,0],[1,0,0,0,0],[1,0.25,0,0,0],[1,0.5,0,0,0],[1,0.75,0,0,0],[1,1,0,0,0]];" vertex="1" parent="1">
          <mxGeometry x="484.24999999999994" y="376.25" width="123.66" height="90" as="geometry" />
        </mxCell>
        <mxCell id="n8gKzf1Zq6XbeUrCmBqp-35" value="" style="shape=link;html=1;rounded=0;" edge="1" parent="1" source="n8gKzf1Zq6XbeUrCmBqp-4" target="n8gKzf1Zq6XbeUrCmBqp-9">
          <mxGeometry width="100" relative="1" as="geometry">
            <mxPoint x="450" y="250" as="sourcePoint" />
            <mxPoint x="550" y="250" as="targetPoint" />
          </mxGeometry>
        </mxCell>
        <mxCell id="n8gKzf1Zq6XbeUrCmBqp-36" value="&lt;font style=&quot;font-size: 24px;&quot;&gt;ISP ROUTER&lt;font&gt;&lt;br&gt;&lt;/font&gt;&lt;/font&gt;" style="text;html=1;strokeColor=none;fillColor=none;align=center;verticalAlign=middle;whiteSpace=wrap;rounded=0;" vertex="1" parent="1">
          <mxGeometry x="610" y="20" width="130" height="85" as="geometry" />
        </mxCell>
        <mxCell id="n8gKzf1Zq6XbeUrCmBqp-37" value="&lt;font style=&quot;font-size: 24px;&quot;&gt;Internet&lt;/font&gt;" style="text;html=1;strokeColor=none;fillColor=none;align=center;verticalAlign=middle;whiteSpace=wrap;rounded=0;" vertex="1" parent="1">
          <mxGeometry x="210" y="70" width="220" height="90" as="geometry" />
        </mxCell>
        <mxCell id="n8gKzf1Zq6XbeUrCmBqp-38" value="&lt;font style=&quot;font-size: 24px;&quot;&gt;Firewall&lt;/font&gt;" style="text;html=1;strokeColor=none;fillColor=none;align=center;verticalAlign=middle;whiteSpace=wrap;rounded=0;" vertex="1" parent="1">
          <mxGeometry x="570" y="185" width="140" height="120" as="geometry" />
        </mxCell>
        <mxCell id="n8gKzf1Zq6XbeUrCmBqp-40" value="&lt;div&gt;&lt;font style=&quot;font-size: 24px;&quot;&gt;Serveur Active Directory&lt;/font&gt;&lt;/div&gt;&lt;div&gt;&lt;font style=&quot;font-size: 24px;&quot;&gt;DNS,&lt;/font&gt;&lt;/div&gt;&lt;div&gt;&lt;font style=&quot;font-size: 24px;&quot;&gt;&amp;nbsp;DHCP,&lt;/font&gt;&lt;/div&gt;&lt;div&gt;&lt;font style=&quot;font-size: 24px;&quot;&gt;WEB&lt;/font&gt;&lt;/div&gt;&lt;div&gt;192.168.1.250&lt;/div&gt;" style="text;html=1;strokeColor=none;fillColor=none;align=center;verticalAlign=middle;whiteSpace=wrap;rounded=0;fontSize=25;" vertex="1" parent="1">
          <mxGeometry x="40" y="490" width="290" height="150" as="geometry" />
        </mxCell>
        <mxCell id="n8gKzf1Zq6XbeUrCmBqp-41" value="&lt;div&gt;&lt;font style=&quot;font-size: 24px;&quot;&gt;Serveur &lt;/font&gt;SIEM&lt;/div&gt;&lt;div&gt;&lt;br&gt;&lt;/div&gt;&lt;div&gt;&lt;br&gt;&lt;/div&gt;&lt;div&gt;192.168.1.250&lt;br&gt;&lt;/div&gt;" style="text;html=1;strokeColor=none;fillColor=none;align=center;verticalAlign=middle;whiteSpace=wrap;rounded=0;fontSize=24;" vertex="1" parent="1">
          <mxGeometry x="811.5" y="450" width="210" height="150" as="geometry" />
        </mxCell>
        <mxCell id="n8gKzf1Zq6XbeUrCmBqp-43" value="&lt;div&gt;&lt;font style=&quot;font-size: 24px;&quot;&gt;Serveur &lt;/font&gt;SIEM&lt;/div&gt;" style="text;html=1;strokeColor=none;fillColor=none;align=center;verticalAlign=middle;whiteSpace=wrap;rounded=0;fontSize=24;" vertex="1" parent="1">
          <mxGeometry x="827" y="790" width="210" height="150" as="geometry" />
        </mxCell>
      </root>
    </mxGraphModel>
  </diagram>
</mxfile>
